<svg width="458" height="208" viewBox="0 0 458 208" fill="none" xmlns="http://www.w3.org/2000/svg">
<g filter="url(#filter0_d_2_8)">
<path d="M407.325 200C398.299 200 390.217 197.599 383.078 192.798C376.073 187.997 370.55 181.482 366.509 173.251C362.468 164.883 360.447 155.35 360.447 144.65C360.447 136.557 361.592 129.15 363.882 122.428C366.172 115.706 369.405 109.877 373.581 104.938C377.892 100 382.876 96.1591 388.533 93.4156C394.191 90.6722 400.455 89.3004 407.325 89.3004C416.35 89.3004 424.365 91.701 431.37 96.5021C438.374 101.166 443.897 107.682 447.938 116.049C451.979 124.417 454 133.951 454 144.65C454 151.097 453.259 157.133 451.777 162.757C450.296 168.381 448.14 173.457 445.312 177.984C442.617 182.51 439.317 186.42 435.411 189.712C431.639 193.004 427.328 195.542 422.479 197.325C417.764 199.108 412.713 200 407.325 200ZM407.325 183.539C411.77 183.539 415.744 182.647 419.246 180.864C422.883 179.081 425.914 176.475 428.339 173.045C430.898 169.616 432.851 165.501 434.198 160.7C435.545 155.899 436.219 150.549 436.219 144.65C436.219 136.694 435.074 129.835 432.784 124.074C430.494 118.176 427.194 113.649 422.883 110.494C418.573 107.339 413.386 105.761 407.325 105.761C402.879 105.761 398.838 106.653 395.201 108.436C391.564 110.219 388.466 112.826 385.907 116.255C383.482 119.685 381.596 123.8 380.249 128.601C378.902 133.265 378.228 138.615 378.228 144.65C378.228 152.606 379.373 159.534 381.663 165.432C384.088 171.193 387.456 175.652 391.766 178.807C396.077 181.962 401.263 183.539 407.325 183.539Z" fill="white"/>
<path d="M329.937 199.588C328.051 199.588 326.704 198.765 325.895 197.119C324.952 195.61 324.616 193.896 324.885 191.975C325.02 189.918 325.828 188.134 327.31 186.626C328.792 184.979 330.947 184.156 333.776 184.156C337.817 184.156 341.454 183.608 344.687 182.51C347.785 181.413 350.479 179.767 352.769 177.572C355.059 175.377 356.878 172.634 358.225 169.342C359.706 166.049 360.717 162.209 361.255 157.819C361.525 155.761 362.535 154.458 364.286 153.909C366.038 153.224 367.721 153.224 369.338 153.909C371.089 154.458 371.83 155.761 371.56 157.819C371.022 165.089 369.607 171.399 367.317 176.749C365.027 181.962 362.064 186.283 358.427 189.712C354.79 193.004 350.546 195.473 345.697 197.119C340.982 198.765 335.729 199.588 329.937 199.588Z" fill="white"/>
<path d="M330.094 199.588C325.514 199.588 321.541 198.903 318.173 197.531C314.805 196.296 312.044 194.376 309.889 191.77C307.733 189.026 306.117 185.665 305.039 181.687C304.096 177.572 303.625 172.771 303.625 167.284V5.3498C303.625 3.56653 304.298 2.26338 305.645 1.44034C307.127 0.480115 309.282 0 312.111 0C315.075 0 317.297 0.480115 318.779 1.44034C320.261 2.26338 321.002 3.56653 321.002 5.3498V167.284C321.002 173.457 321.877 177.846 323.629 180.453C325.514 182.922 328.949 184.156 333.934 184.156C335.819 184.156 337.234 184.979 338.177 186.626C339.12 188.134 339.456 189.918 339.187 191.975C339.052 193.896 338.244 195.61 336.762 197.119C335.281 198.765 333.058 199.588 330.094 199.588Z" fill="white"/>
<path d="M264.426 199.588C262.54 199.588 261.193 198.765 260.384 197.119C259.442 195.61 259.105 193.896 259.374 191.975C259.509 189.918 260.317 188.134 261.799 186.626C263.281 184.979 265.436 184.156 268.265 184.156C272.71 184.156 276.818 183.402 280.59 181.893C284.497 180.384 287.999 178.326 291.097 175.72C294.195 172.977 296.957 169.753 299.382 166.049C301.806 162.346 303.827 158.368 305.443 154.115C306.252 152.058 307.397 151.166 308.878 151.44C310.36 151.578 311.64 152.332 312.717 153.704C313.93 154.938 314.334 156.31 313.93 157.819C311.909 164.403 309.282 170.302 306.05 175.514C302.951 180.59 299.314 184.979 295.138 188.683C291.097 192.25 286.45 194.925 281.196 196.708C276.078 198.628 270.487 199.588 264.426 199.588Z" fill="white"/>
<path d="M264.583 199.588C260.004 199.588 256.03 198.903 252.662 197.531C249.294 196.296 246.533 194.376 244.378 191.77C242.222 189.026 240.606 185.665 239.528 181.687C238.585 177.572 238.114 172.771 238.114 167.284V5.3498C238.114 3.56653 238.787 2.26338 240.134 1.44034C241.616 0.480115 243.772 0 246.6 0C249.564 0 251.786 0.480115 253.268 1.44034C254.75 2.26338 255.491 3.56653 255.491 5.3498V167.284C255.491 173.457 256.366 177.846 258.118 180.453C260.004 182.922 263.439 184.156 268.423 184.156C270.308 184.156 271.723 184.979 272.666 186.626C273.609 188.134 273.945 189.918 273.676 191.975C273.541 193.896 272.733 195.61 271.251 197.119C269.77 198.765 267.547 199.588 264.583 199.588Z" fill="white"/>
<path d="M182.952 199.589C181.74 199.589 180.797 198.834 180.123 197.325C179.45 195.816 179.113 194.102 179.113 192.181C179.113 190.124 179.45 188.34 180.123 186.831C180.797 185.322 181.74 184.568 182.952 184.568C189.553 184.568 195.816 183.676 201.744 181.893C207.671 180.11 213.126 177.641 218.11 174.486C223.094 171.331 227.405 167.558 231.042 163.169C234.814 158.779 237.777 154.047 239.932 148.971C240.471 147.462 241.549 146.845 243.165 147.119C244.917 147.257 246.466 147.874 247.813 148.971C249.294 150.069 249.766 151.372 249.227 152.881C246.937 159.739 243.637 166.049 239.326 171.811C235.016 177.435 229.897 182.373 223.97 186.626C218.178 190.741 211.846 193.896 204.976 196.091C197.972 198.423 190.63 199.589 182.952 199.589Z" fill="white"/>
<path d="M138.443 167.49C146.66 161.728 153.53 156.516 159.053 151.852C164.575 147.188 168.953 142.867 172.186 138.889C175.554 134.911 177.979 131.139 179.46 127.572C180.942 124.005 181.683 120.576 181.683 117.284C181.683 113.169 180.605 110.219 178.45 108.436C176.295 106.653 173.466 105.761 169.964 105.761C166.731 105.761 163.7 106.722 160.871 108.642C158.042 110.425 155.483 112.963 153.193 116.255C151.038 119.547 149.354 123.457 148.141 127.984C146.929 132.51 146.323 137.449 146.323 142.798C146.323 149.794 147.266 155.899 149.152 161.111C151.038 166.324 153.664 170.713 157.032 174.28C160.4 177.709 164.306 180.316 168.751 182.099C173.197 183.745 178.046 184.568 183.299 184.568C185.32 184.568 186.802 185.322 187.745 186.831C188.688 188.34 189.159 190.123 189.159 192.181C189.159 194.102 188.688 195.816 187.745 197.325C186.802 198.834 185.32 199.588 183.299 199.588C170.772 199.588 160.467 197.188 152.385 192.387C144.302 187.449 138.241 180.796 134.199 172.428C130.293 163.923 128.34 154.321 128.34 143.621C128.34 135.391 129.417 127.984 131.573 121.399C133.728 114.678 136.759 108.916 140.665 104.115C144.572 99.3141 149.152 95.679 154.405 93.2099C159.659 90.6036 165.451 89.3004 171.782 89.3004C177.305 89.3004 182.087 90.4664 186.128 92.7984C190.304 95.1303 193.537 98.2853 195.827 102.263C198.252 106.241 199.464 110.837 199.464 116.049C199.464 120.165 198.723 124.28 197.241 128.395C195.76 132.51 193.268 136.831 189.765 141.358C186.263 145.885 181.548 150.754 175.621 155.967C169.694 161.18 162.353 166.941 153.597 173.251L138.443 167.49Z" fill="white"/>
<path d="M100.254 199.588C98.3678 199.588 97.0208 198.765 96.2125 197.119C95.2696 195.61 94.9328 193.896 95.2022 191.975C95.3369 189.918 96.1452 188.134 97.6269 186.626C99.1087 184.979 101.264 184.156 104.093 184.156C106.922 184.156 110.222 183.471 113.994 182.099C117.631 180.59 121.537 178.601 125.713 176.132C129.889 173.525 134.065 170.576 138.241 167.284C139.992 165.775 141.608 165.295 143.09 165.844C144.706 166.255 145.986 167.215 146.929 168.724C147.872 170.233 148.276 171.948 148.141 173.868C148.141 175.652 147.333 177.161 145.717 178.395C140.463 182.51 135.075 186.214 129.552 189.506C124.164 192.661 118.978 195.13 113.994 196.914C108.875 198.697 104.295 199.588 100.254 199.588Z" fill="white"/>
<path d="M100.18 199.588C95.5995 199.588 91.6257 198.903 88.2581 197.531C84.8905 196.296 82.129 194.376 79.9737 191.77C77.8184 189.026 76.202 185.665 75.1243 181.687C74.1814 177.572 73.7099 172.771 73.7099 167.284V129.012C73.7099 121.742 72.0935 116.049 68.8606 111.934C65.7623 107.819 60.5088 105.761 53.1 105.761C50.2712 105.761 47.3751 106.173 44.4116 106.996C41.448 107.819 38.5519 109.122 35.7231 110.905C32.8943 112.689 30.2675 115.089 27.8428 118.107C25.4181 120.988 23.2628 124.554 21.377 128.807V193.827C21.377 195.61 20.6361 196.914 19.1543 197.737C17.6726 198.697 15.5173 199.177 12.6885 199.177C9.72498 199.177 7.50233 198.697 6.02058 197.737C4.67353 196.914 4 195.61 4 193.827V5.3498C4 3.56653 4.67353 2.26338 6.02058 1.44034C7.50233 0.480115 9.72498 0 12.6885 0C15.5173 0 17.6726 0.480115 19.1543 1.44034C20.6361 2.26338 21.377 3.56653 21.377 5.3498V108.642C23.2628 105.761 25.4181 103.155 27.8428 100.823C30.4022 98.3539 33.0963 96.2963 35.9251 94.6502C38.8886 92.867 41.9869 91.5638 45.2198 90.7408C48.4527 89.7805 51.8877 89.3004 55.5247 89.3004C62.5294 89.3004 68.6585 90.6036 73.912 93.2099C79.3002 95.8162 83.4761 99.9314 86.4396 105.556C89.5378 111.043 91.0869 118.313 91.0869 127.366V167.284C91.0869 173.457 91.9625 177.846 93.7137 180.453C95.5995 182.922 99.0345 184.156 104.019 184.156C105.904 184.156 107.319 184.979 108.262 186.626C109.205 188.134 109.542 189.918 109.272 191.975C109.137 193.896 108.329 195.61 106.847 197.119C105.366 198.765 103.143 199.588 100.18 199.588Z" fill="white"/>
</g>
<defs>
<filter id="filter0_d_2_8" x="0" y="0" width="458" height="208" filterUnits="userSpaceOnUse" color-interpolation-filters="sRGB">
<feFlood flood-opacity="0" result="BackgroundImageFix"/>
<feColorMatrix in="SourceAlpha" type="matrix" values="0 0 0 0 0 0 0 0 0 0 0 0 0 0 0 0 0 0 127 0" result="hardAlpha"/>
<feOffset dy="4"/>
<feGaussianBlur stdDeviation="2"/>
<feComposite in2="hardAlpha" operator="out"/>
<feColorMatrix type="matrix" values="0 0 0 0 0 0 0 0 0 0 0 0 0 0 0 0 0 0 0.25 0"/>
<feBlend mode="normal" in2="BackgroundImageFix" result="effect1_dropShadow_2_8"/>
<feBlend mode="normal" in="SourceGraphic" in2="effect1_dropShadow_2_8" result="shape"/>
</filter>
</defs>
</svg>
